<svg width="256" height="245" viewBox="0 0 256 245" fill="none" xmlns="http://www.w3.org/2000/svg">
<path d="M128 11.8656C125.645 11.8656 123.733 13.7771 123.733 16.1323V41.7323C123.733 44.0875 125.645 45.9989 128 45.9989C130.355 45.9989 132.267 44.0875 132.267 41.7323V16.1323C132.267 13.7771 130.355 11.8656 128 11.8656Z" fill="#B65D84"/>
<path d="M251.733 135.599H226.133C223.778 135.599 221.867 137.51 221.867 139.866C221.867 142.221 223.778 144.132 226.133 144.132H251.733C254.089 144.132 256 142.221 256 139.866C256 137.51 254.089 135.599 251.733 135.599Z" fill="#B65D84"/>
<path d="M29.8667 135.599H4.26667C1.91147 135.599 0 137.51 0 139.866C0 142.221 1.91147 144.132 4.26667 144.132H29.8667C32.2219 144.132 34.1333 142.221 34.1333 139.866C34.1333 137.51 32.2219 135.599 29.8667 135.599Z" fill="#B65D84"/>
<path d="M224.883 42.9824C223.215 41.3141 220.518 41.3141 218.85 42.9824L194.377 67.456C192.708 69.1243 192.708 71.8208 194.377 73.4891C195.209 74.3211 196.301 74.7392 197.393 74.7392C198.485 74.7392 199.578 74.3211 200.41 73.4891L224.883 49.0155C226.552 47.3472 226.552 44.6464 224.883 42.9824Z" fill="#B65D84"/>
<path d="M37.15 42.9824C35.4817 41.3141 32.7852 41.3141 31.1169 42.9824C29.4487 44.6507 29.4487 47.3472 31.1169 49.0155L55.5905 73.4891C56.4225 74.3211 57.5148 74.7392 58.6071 74.7392C59.6993 74.7392 60.7916 74.3211 61.6236 73.4891C63.2919 71.8208 63.2919 69.1243 61.6236 67.456L37.15 42.9824Z" fill="#B65D84"/>
<path d="M234.044 94.8523C233.122 92.6848 230.613 91.6693 228.45 92.5909L216.666 97.5915C214.498 98.5131 213.483 101.018 214.404 103.185C215.095 104.811 216.674 105.788 218.334 105.788C218.889 105.788 219.456 105.677 219.998 105.446L231.782 100.446C233.95 99.5243 234.961 97.0197 234.044 94.8523Z" fill="#B65D84"/>
<path d="M38.6091 99.1488L26.7392 94.3531C24.5547 93.4699 22.0672 94.5237 21.184 96.7125C20.3008 98.8971 21.359 101.385 23.5435 102.268L35.4134 107.059C35.9382 107.268 36.48 107.371 37.0091 107.371C38.6987 107.371 40.2987 106.364 40.9686 104.7C41.8518 102.519 40.7979 100.032 38.6091 99.1488Z" fill="#B65D84"/>
<path d="M88.5802 36.0832C87.6586 33.9115 85.1498 32.896 82.9866 33.8219C80.8191 34.7435 79.8037 37.248 80.7253 39.4155L85.7301 51.2C86.4213 52.8256 87.9999 53.8027 89.6597 53.8027C90.2143 53.8027 90.7818 53.6917 91.3237 53.4613C93.4911 52.5397 94.5066 50.0352 93.585 47.8677L88.5802 36.0832Z" fill="#B65D84"/>
<path d="M171.153 33.0539C168.973 32.1707 166.481 33.2288 165.598 35.4133L160.802 47.2832C159.919 49.4677 160.977 51.9552 163.162 52.8384C163.686 53.0475 164.228 53.1499 164.757 53.1499C166.447 53.1499 168.047 52.1429 168.717 50.4789L173.513 38.6091C174.396 36.4245 173.338 33.9371 171.153 33.0539Z" fill="#B65D84"/>
<path d="M11.6011 181.231C18.7733 173.815 28.2923 169.732 38.4 169.732C48.5077 169.732 58.0267 173.815 65.1989 181.231L68.2667 184.401L71.3344 181.231C78.5067 173.815 88.0256 169.732 98.1333 169.732C108.241 169.732 117.76 173.815 124.932 181.231L128 184.401L131.068 181.231C138.24 173.815 147.759 169.732 157.867 169.732C167.974 169.732 177.493 173.815 184.666 181.231L187.733 184.401L190.801 181.231C197.973 173.815 207.492 169.732 217.6 169.732C227.708 169.732 237.227 173.815 244.399 181.231C246.037 182.925 248.738 182.976 250.432 181.329C252.122 179.691 252.169 176.99 250.53 175.296C241.732 166.204 230.037 161.195 217.596 161.195C206.549 161.195 196.092 165.141 187.729 172.39C179.366 165.141 168.909 161.195 157.862 161.195C146.816 161.195 136.358 165.141 127.996 172.39C119.633 165.141 109.175 161.195 98.1291 161.195C87.0827 161.195 76.6251 165.141 68.2624 172.39C59.8997 165.141 49.4421 161.195 38.3957 161.195C25.9541 161.195 14.2592 166.204 5.46135 175.296C3.82294 176.99 3.86561 179.691 5.55948 181.329C7.26188 182.967 9.95415 182.925 11.6011 181.231Z" fill="#1F66FF"/>
<path d="M217.6 191.066C206.554 191.066 196.096 195.012 187.733 202.261C179.371 195.012 168.913 191.066 157.867 191.066C146.82 191.066 136.363 195.012 128 202.261C119.637 195.012 109.18 191.066 98.1332 191.066C87.0868 191.066 76.6292 195.012 68.2666 202.261C59.9039 195.012 49.4463 191.066 38.3999 191.066C25.9583 191.066 14.2634 196.075 5.4655 205.167C3.8271 206.861 3.86976 209.562 5.56363 211.2C7.2575 212.834 9.95403 212.791 11.5967 211.102C18.7732 203.682 28.2922 199.599 38.3999 199.599C48.5076 199.599 58.0266 203.682 65.1988 211.098L68.2666 214.268L71.3343 211.098C78.5066 203.682 88.0255 199.599 98.1332 199.599C108.241 199.599 117.76 203.682 124.932 211.098L128 214.268L131.068 211.098C138.24 203.682 147.759 199.599 157.867 199.599C167.974 199.599 177.493 203.682 184.665 211.098L187.733 214.268L190.801 211.098C197.973 203.682 207.492 199.599 217.6 199.599C227.708 199.599 237.227 203.682 244.399 211.098C246.037 212.791 248.738 212.843 250.432 211.196C252.122 209.557 252.168 206.857 250.53 205.163C241.736 196.075 230.042 191.066 217.6 191.066Z" fill="#1F66FF"/>
<path d="M217.6 220.932C206.554 220.932 196.096 224.879 187.733 232.128C179.371 224.879 168.913 220.932 157.867 220.932C146.82 220.932 136.363 224.879 128 232.128C119.637 224.879 109.18 220.932 98.1332 220.932C87.0868 220.932 76.6292 224.879 68.2666 232.128C59.9039 224.879 49.4463 220.932 38.3999 220.932C25.9583 220.932 14.2634 225.941 5.4655 235.034C3.8271 236.727 3.86976 239.428 5.56363 241.067C7.2575 242.701 9.95403 242.658 11.5967 240.969C18.7732 233.549 28.2922 229.466 38.3999 229.466C48.5076 229.466 58.0266 233.549 65.1988 240.964L68.2666 244.134L71.3343 240.964C78.5066 233.549 88.0255 229.466 98.1332 229.466C108.241 229.466 117.76 233.549 124.932 240.964L128 244.134L131.068 240.964C138.24 233.549 147.759 229.466 157.867 229.466C167.974 229.466 177.493 233.549 184.665 240.964L187.733 244.134L190.801 240.964C197.973 233.549 207.492 229.466 217.6 229.466C227.708 229.466 237.227 233.549 244.399 240.964C246.037 242.654 248.738 242.709 250.432 241.062C252.122 239.424 252.168 236.723 250.53 235.029C241.736 225.941 230.042 220.932 217.6 220.932Z" fill="#1F66FF"/>
<path d="M68.2665 172.395C76.6292 165.146 87.0868 161.199 98.1332 161.199C109.18 161.199 119.637 165.146 128 172.395C136.363 165.146 146.82 161.199 157.867 161.199C168.913 161.199 179.371 165.146 187.733 172.395C194.236 166.758 202.014 163.149 210.342 161.809C212.22 154.795 213.333 147.473 213.333 139.866C213.333 92.736 175.129 54.5323 128 54.5323C80.8702 54.5323 42.6665 92.736 42.6665 139.866C42.6665 147.473 43.7801 154.795 45.6574 161.809C53.986 163.149 61.7641 166.754 68.2665 172.395Z" fill="#B65D84"/>
<path d="M98.1332 161.199C109.18 161.199 119.637 165.146 128 172.395C136.363 165.146 146.82 161.199 157.867 161.199C167.526 161.199 176.734 164.215 184.486 169.822C189.256 160.879 192 150.703 192 139.866C192 104.521 163.345 75.8656 128 75.8656C92.6548 75.8656 63.9999 104.521 63.9999 139.866C63.9999 150.707 66.7433 160.883 71.5135 169.822C79.266 164.215 88.4735 161.199 98.1332 161.199Z" fill="#B65D84"/>
<path d="M109.176 181.884C109.176 181.884 108.379 182.081 106.883 182.454C105.38 182.817 103.217 183.395 100.382 184.046C98.8972 184.295 97.2524 184.571 95.4629 184.872C93.6772 185.167 91.7325 185.535 89.7498 185.626C87.7466 185.777 85.6122 185.971 83.3768 186.106C81.1711 186.085 78.8528 186.063 76.4323 186.04C74.0326 185.956 71.6035 185.594 69.0607 185.365C67.7749 185.287 66.5529 184.959 65.2801 184.719C64.0138 184.465 62.7301 184.204 61.4286 183.938C58.8626 183.328 56.3533 182.412 53.731 181.632C52.4947 181.096 51.2456 180.553 49.9824 180.007C48.7422 179.43 47.4093 178.978 46.25 178.226C43.8793 176.815 41.3513 175.547 39.1909 173.736C38.0819 172.867 36.9041 172.075 35.8469 171.133C34.8309 170.143 33.8119 169.146 32.7882 168.149C32.2911 167.634 31.7383 167.177 31.2872 166.615L29.9492 164.915C29.0722 163.765 28.1312 162.67 27.3108 161.472L25.0868 157.68C24.7379 157.035 24.2994 156.448 24.0237 155.754L23.1603 153.691C22.6136 152.303 21.9599 150.973 21.5071 149.539L20.3341 145.144C19.872 143.716 19.7022 142.168 19.5124 140.635C19.3239 139.075 19.0851 137.657 18.9493 135.999C18.9151 134.478 18.8821 132.964 18.8474 131.456C18.912 129.881 19.0308 128.279 19.1229 126.708C19.4658 123.56 19.9192 120.464 20.6837 117.402C22.1355 111.288 24.3813 105.429 27.0257 100.061C29.7183 94.6924 32.8757 89.8675 35.9961 85.5681C37.6607 83.4824 39.1498 81.4133 40.7981 79.6166C41.5982 78.7008 42.3766 77.8068 43.1342 76.9422C43.9321 76.1114 44.7104 75.3089 45.463 74.5287C46.0637 73.9194 46.6298 73.3102 47.201 72.7389C47.3547 72.5852 47.5102 72.4332 47.6652 72.2852C48.404 71.5981 49.1181 70.9341 49.8051 70.2954C50.489 69.6581 51.1468 69.0469 51.7723 68.4645C52.4287 67.9152 53.0535 67.3888 53.647 66.892C54.8396 65.9065 55.8762 64.9873 56.8241 64.2585C57.7812 63.5345 58.5923 62.9219 59.2506 62.4224C60.5667 61.4274 61.2681 60.8969 61.2681 60.8969C61.2681 60.8969 60.5831 61.4524 59.2982 62.494C58.6578 63.0135 57.8673 63.6555 56.9357 64.4094C56.0093 65.1683 55.0061 66.1232 53.8517 67.1447C53.2772 67.6604 52.6747 68.2026 52.041 68.7724C51.4333 69.3749 50.8024 70.0041 50.1433 70.6598C49.4833 71.3146 48.8 71.9962 48.0866 72.7044C47.384 73.419 46.7064 74.2088 45.979 74.9967C45.2623 75.791 44.5203 76.6124 43.7583 77.4573C43.0423 78.3373 42.3042 79.2411 41.5467 80.1712C39.9803 81.993 38.5915 84.0775 37.0302 86.1705C34.1212 90.4829 31.2129 95.2865 28.7997 100.555C26.4343 105.827 24.4968 111.512 23.3472 117.364C22.7366 120.287 22.4322 123.254 22.2318 126.195C22.2073 127.64 22.1817 129.095 22.1572 130.557C22.2557 132.047 22.3572 133.544 22.4552 135.046C23.3114 140.592 24.5069 146.377 27.1565 151.19L28.046 153.061C28.3314 153.688 28.7761 154.214 29.1303 154.797L31.3692 158.196C32.1908 159.266 33.1262 160.236 33.9922 161.257L35.308 162.767C35.7492 163.265 36.2976 163.66 36.7846 164.113C37.7818 164.99 38.7748 165.863 39.7645 166.731C40.7924 167.551 41.94 168.23 43.0084 168.984C45.0886 170.565 47.5299 171.618 49.7922 172.818C50.895 173.468 52.1756 173.822 53.357 174.301C54.5562 174.75 55.7429 175.2 56.9179 175.642C59.4145 176.244 61.782 176.987 64.2021 177.443C65.4299 177.63 66.6394 177.817 67.832 178.001C69.0286 178.166 70.171 178.425 71.3803 178.44C73.7709 178.537 76.0353 178.782 78.276 178.759C80.5245 178.686 82.6815 178.612 84.7331 178.542C86.8116 178.299 88.7809 178.066 90.6342 177.846C92.4944 177.689 94.1942 177.281 95.7684 176.958C97.3411 176.64 98.7858 176.345 100.09 176.08C102.835 175.336 105.056 174.652 106.538 174.235C108.031 173.801 108.828 173.571 108.828 173.571L109.176 181.884Z" fill="black"/>
<path d="M194.6 -1.34999C193.367 1.19723 192.544 4.65417 192.339 6.83751C189.05 6.83751 186.378 9.20278 186.378 12.1139C186.378 15.025 189.05 17.3903 192.339 17.3903C192.75 17.3903 193.161 17.3903 193.572 17.2083C193.161 25.0319 185.967 31.2181 176.922 31.2181C167.878 31.2181 160.683 25.0319 160.272 17.2083C162.944 16.8444 165.205 14.6611 165.205 12.1139C165.205 9.20278 162.533 6.83751 159.244 6.83751H158.628C157.805 3.19862 155.544 -2.6236 152.872 -2.6236C150.2 -2.6236 147.939 3.01667 147.117 6.83751C146.705 6.83751 146.294 6.65556 145.883 6.65556C142.594 6.65556 139.922 9.02084 139.922 11.932C139.922 14.4792 141.978 16.6625 144.855 17.2083C144.444 25.0319 137.25 31.2181 128.205 31.2181C119.161 31.2181 111.967 24.85 111.555 17.0264C114.228 16.4806 116.078 14.4792 116.078 11.932C116.078 9.02084 113.405 6.65556 110.117 6.65556H109.5C108.678 3.01667 106.417 -2.80555 103.744 -2.80555C101.072 -2.80555 98.811 2.83473 97.9887 6.65556C97.5776 6.65556 97.1665 6.47362 96.7554 6.47362C93.4665 6.47362 90.7943 8.83889 90.7943 11.75C90.7943 14.4792 93.0554 16.6625 96.1387 17.0264C95.7276 24.85 88.3276 31.0361 79.4887 31.0361C70.4443 31.0361 63.2499 24.85 62.8387 17.0264C63.2499 17.0264 63.661 17.2083 64.0721 17.2083C67.361 17.2083 70.0332 14.8431 70.0332 11.932C70.0332 9.02084 67.361 6.65556 64.0721 6.65556H63.661C63.2499 4.29028 62.6332 1.19723 61.811 -1.34999C61.1943 -3.35138 58.111 -2.98749 58.111 -0.80416V84.3458H198.711V-0.440272C198.3 -2.6236 195.628 -3.16944 194.6 -1.34999Z" fill="#FFB636"/>
<path d="M199.533 58.3278H56.4667C55.0278 58.3278 54 57.4181 54 56.1445V49.9584C54 48.6847 55.0278 47.775 56.4667 47.775H199.328C200.767 47.775 201.794 48.6847 201.794 49.9584V56.1445C202 57.4181 200.972 58.3278 199.533 58.3278ZM202 89.2584V83.0722C202 81.7986 200.972 80.8889 199.533 80.8889H56.4667C55.0278 80.8889 54 81.7986 54 83.0722V89.2584C54 90.532 55.0278 91.4417 56.4667 91.4417H199.328C200.972 91.4417 202 90.532 202 89.2584Z" fill="#FFD469"/>
<path d="M125.946 183.084C126.214 182.081 126.891 181.69 127.344 181.552C126.924 181.559 126.147 181.523 124.845 181.345C124.845 181.345 120.573 181.072 120.476 179.648L120.475 179.622C120.377 178.177 124.412 175.138 124.412 175.138C125.631 174.121 126.367 173.579 126.777 173.298C126.318 173.469 125.622 173.538 125.238 172.759L122.473 166.394C122.433 166.297 122.409 166.199 122.386 166.104L130.207 164.444L134.473 167.934C134.799 168.203 135.249 168.489 135.249 168.489C135.249 168.489 136.681 168.031 137.078 167.836L161.578 158.882L151.167 130.985C150.894 130.235 151.392 129.473 152.292 129.279L159.862 127.659C160.763 127.468 161.827 127.845 162.25 128.507L178.075 153.425L202.563 145.886C207.081 144.505 211.839 144.558 213.197 146.024C213.709 146.578 214.012 147.358 214.12 148.235L214.123 148.256C214.14 149.163 213.958 150.107 213.532 150.977C212.438 153.251 207.899 156.435 203.399 158.073L179.008 166.913L167.262 201.086C166.945 201.99 165.986 203.043 165.096 203.452L157.654 206.863C156.765 207.27 156.186 206.872 156.346 205.975L162.519 172.516L137.92 180.022C137.518 180.09 136.082 180.591 136.082 180.591C136.082 180.591 135.693 181.167 135.417 181.639L131.815 187.767L124.123 191.299C124.134 191.191 124.139 191.086 124.176 190.963L125.946 183.084Z" fill="black"/>
<path d="M186.378 69.9722C186.378 73.2472 183.5 75.7945 179.8 75.7945C176.1 75.7945 173.222 73.2472 173.222 69.9722C173.222 66.6972 176.1 64.15 179.8 64.15C183.5 64.15 186.378 66.6972 186.378 69.9722ZM128 64.15C124.3 64.15 121.422 66.6972 121.422 69.9722C121.422 73.2472 124.3 75.7945 128 75.7945C131.7 75.7945 134.578 73.2472 134.578 69.9722C134.578 66.6972 131.7 64.15 128 64.15ZM76.1998 64.15C72.4998 64.15 69.6221 66.6972 69.6221 69.9722C69.6221 73.2472 72.4998 75.7945 76.1998 75.7945C79.8998 75.7945 82.7776 73.0653 82.7776 69.9722C82.7776 66.8792 79.8998 64.15 76.1998 64.15Z" fill="#5D1FFF"/>
</svg>
